<svg width="48" height="48" viewBox="0 0 48 48" fill="none" xmlns="http://www.w3.org/2000/svg">
<path d="M9.23077 0C6.78262 0 4.43473 0.972525 2.70363 2.70363C0.972525 4.43473 0 6.78262 0 9.23077V31.3846C0 33.8328 0.972525 36.1806 2.70363 37.9118C4.43473 39.6429 6.78262 40.6154 9.23077 40.6154H11.0769V27.6923C11.0769 25.2442 12.0494 22.8963 13.7806 21.1652C15.5117 19.4341 17.8595 18.4615 20.3077 18.4615H40.6154V9.23077C40.6154 6.78262 39.6429 4.43473 37.9118 2.70363C36.1806 0.972525 33.8328 0 31.3846 0H9.23077ZM9.23077 9.23077C9.23077 8.74114 9.42527 8.27156 9.7715 7.92534C10.1177 7.57912 10.5873 7.38462 11.0769 7.38462H29.5385C30.0281 7.38462 30.4977 7.57912 30.8439 7.92534C31.1901 8.27156 31.3846 8.74114 31.3846 9.23077C31.3846 9.7204 31.1901 10.19 30.8439 10.5362C30.4977 10.8824 30.0281 11.0769 29.5385 11.0769H11.0769C10.5873 11.0769 10.1177 10.8824 9.7715 10.5362C9.42527 10.19 9.23077 9.7204 9.23077 9.23077ZM14.7766 27.4302C14.844 26.0084 15.4561 24.6672 16.486 23.6848C17.5158 22.7024 18.8844 22.1541 20.3077 22.1538H42.4615C43.8848 22.1541 45.2534 22.7024 46.2833 23.6848C47.3131 24.6672 47.9252 26.0084 47.9926 27.4302L31.3846 36.6572L14.7766 27.4302ZM32.2782 40.3828L48 31.6505V42.4615C48 43.9304 47.4165 45.3392 46.3778 46.3778C45.3392 47.4165 43.9304 48 42.4615 48H20.3077C18.8388 48 17.4301 47.4165 16.3914 46.3778C15.3527 45.3392 14.7692 43.9304 14.7692 42.4615V31.6505L30.4874 40.3828C30.7618 40.5354 31.0706 40.6155 31.3846 40.6155C31.6986 40.6155 32.0074 40.5354 32.2818 40.3828H32.2782Z" fill="#FF6B17"/>
</svg>
