<svg width="24" height="24" viewBox="0 0 24 24" fill="none" xmlns="http://www.w3.org/2000/svg">
<path d="M24 12C24 15.1826 22.7357 18.2348 20.4853 20.4853C18.2348 22.7357 15.1826 24 12 24C8.8174 24 5.76516 22.7357 3.51472 20.4853C1.26428 18.2348 0 15.1826 0 12C0 8.8174 1.26428 5.76516 3.51472 3.51472C5.76516 1.26428 8.8174 0 12 0C15.1826 0 18.2348 1.26428 20.4853 3.51472C22.7357 5.76516 24 8.8174 24 12ZM12 5.14286C11.5453 5.14286 11.1093 5.32347 10.7878 5.64496C10.4663 5.96645 10.2857 6.40249 10.2857 6.85714V10.2857H6.85714C6.40249 10.2857 5.96645 10.4663 5.64496 10.7878C5.32347 11.1093 5.14286 11.5453 5.14286 12C5.14286 12.4547 5.32347 12.8907 5.64496 13.2122C5.96645 13.5337 6.40249 13.7143 6.85714 13.7143H10.2857V17.1429C10.2857 17.5975 10.4663 18.0336 10.7878 18.355C11.1093 18.6765 11.5453 18.8571 12 18.8571C12.4547 18.8571 12.8907 18.6765 13.2122 18.355C13.5337 18.0336 13.7143 17.5975 13.7143 17.1429V13.7143H17.1429C17.5975 13.7143 18.0336 13.5337 18.355 13.2122C18.6765 12.8907 18.8571 12.4547 18.8571 12C18.8571 11.5453 18.6765 11.1093 18.355 10.7878C18.0336 10.4663 17.5975 10.2857 17.1429 10.2857H13.7143V6.85714C13.7143 6.40249 13.5337 5.96645 13.2122 5.64496C12.8907 5.32347 12.4547 5.14286 12 5.14286Z" fill="#FF5F00"/>
</svg>
