<svg width="49" height="49" viewBox="0 0 49 49" fill="none" xmlns="http://www.w3.org/2000/svg">
<path d="M48.8677 30.5579L48.9191 30.7097L48.9755 30.9547L49 31.1997V47.1626C48.9998 47.6074 48.8383 48.0369 48.5455 48.3717C48.2526 48.7064 47.8482 48.9236 47.4074 48.9828L47.1624 49H1.83759C1.39354 49 0.96451 48.8392 0.629851 48.5474C0.295193 48.2555 0.0775422 47.8524 0.0171508 47.4125L0 47.1626V31.2389L0.00490047 31.1115L0.0294017 30.9008C0.054269 30.7721 0.092875 30.6465 0.144557 30.526L6.90689 15.7806C7.03445 15.5019 7.22972 15.2595 7.47493 15.0755C7.72014 14.8915 8.00749 14.7717 8.31082 14.7272L8.57543 14.71L14.7987 14.7076L12.8631 18.0638L12.699 18.3823H9.75149L4.69933 29.4015H44.2737L39.3073 18.7547L41.4193 15.0873C41.5835 15.2098 41.7256 15.3641 41.8407 15.5381L41.9706 15.7708L48.8677 30.5579ZM27.8456 0.141041L28.0711 0.251283L40.7823 7.60805C41.5859 8.07352 41.9044 9.05589 41.5639 9.89372L41.4536 10.1191L34.5761 22.0521H37.3644C37.8333 22.0474 38.2862 22.222 38.6305 22.5403C38.9749 22.8586 39.1844 23.2965 39.2164 23.7642C39.2483 24.232 39.1002 24.6943 38.8024 25.0564C38.5045 25.4186 38.0795 25.6531 37.6143 25.7121L37.3644 25.7293L32.4592 25.7268V25.7342H22.4652L22.4578 25.7268H11.6381C11.1754 25.7225 10.7314 25.5438 10.3947 25.2264C10.0581 24.9091 9.85355 24.4764 9.82199 24.0149C9.79043 23.5533 9.93417 23.0968 10.2245 22.7366C10.5148 22.3764 10.9304 22.139 11.3882 22.0717L11.6381 22.0546L16.1047 22.0521L15.6587 21.7949C15.2754 21.5715 14.9855 21.2174 14.8424 20.7975C14.6993 20.3776 14.7125 19.9202 14.8796 19.5092L14.9874 19.2838L25.5646 0.92008C26.0301 0.114093 27.0101 -0.206832 27.8456 0.136141V0.141041ZM27.8211 4.35471L19.084 19.5288L23.4403 22.0521H30.3423L37.3619 9.86923L27.826 4.34981L27.8211 4.35471Z" fill="#FF5F00"/>
</svg>
