<svg width="51" height="44" viewBox="0 0 51 44" fill="none" xmlns="http://www.w3.org/2000/svg">
<path fill-rule="evenodd" clip-rule="evenodd" d="M46.9424 12.2984C46.8072 12.2886 46.6573 12.2886 46.5 12.2886H40.2943C35.2117 12.2886 30.864 16.2897 30.864 21.505C30.864 26.7202 35.2142 30.7214 40.2943 30.7214H46.5C46.6573 30.7214 46.8072 30.7214 46.9473 30.7116C47.9919 30.6486 48.9779 30.208 49.7217 29.4719C50.4656 28.7357 50.9164 27.7543 50.9902 26.7104C51 26.5629 51 26.4032 51 26.2557V16.7542C51 16.6068 51 16.447 50.9902 16.2995C50.9164 15.2557 50.4656 14.2742 49.7217 13.5381C48.9779 12.802 47.9919 12.3614 46.9473 12.2984H46.9424ZM39.7462 23.9627C41.0537 23.9627 42.113 22.8616 42.113 21.505C42.113 20.1483 41.0537 19.0473 39.7462 19.0473C38.4362 19.0473 37.3769 20.1483 37.3769 21.505C37.3769 22.8616 38.4362 23.9627 39.7462 23.9627Z" fill="#FF5F00"/>
<path fill-rule="evenodd" clip-rule="evenodd" d="M46.495 34.408C46.58 34.4045 46.6645 34.4212 46.7418 34.4566C46.8192 34.492 46.887 34.5452 46.9399 34.6118C46.9929 34.6783 47.0293 34.7564 47.0464 34.8397C47.0635 34.923 47.0606 35.0092 47.0381 35.0912C46.5466 36.8411 45.7626 38.3354 44.5067 39.5888C42.6659 41.4321 40.3335 42.2456 37.4531 42.6339C34.6513 43.01 31.0753 43.0099 26.558 43.0099H21.3673C16.8501 43.0099 13.2716 43.01 10.4723 42.6339C7.59187 42.2456 5.2595 41.4296 3.41868 39.5913C1.58031 37.7504 0.764349 35.4181 0.37603 32.5376C2.92982e-07 29.7359 0 26.1599 0 21.6426V21.3673C0 16.8501 2.92982e-07 13.2716 0.37603 10.4699C0.764349 7.58941 1.58031 5.25704 3.41868 3.41622C5.2595 1.57785 7.59187 0.76189 10.4723 0.373572C13.2741 -1.09868e-07 16.8501 0 21.3673 0H26.558C31.0753 0 34.6537 2.92982e-07 37.4531 0.37603C40.3335 0.764349 42.6659 1.58031 44.5067 3.41868C45.7626 4.67702 46.5466 6.16886 47.0381 7.91875C47.0606 8.00076 47.0635 8.08691 47.0464 8.17022C47.0293 8.25353 46.9929 8.33163 46.9399 8.3982C46.887 8.46476 46.8192 8.51791 46.7418 8.55332C46.6645 8.58873 46.58 8.6054 46.495 8.60199H40.2917C33.3192 8.60199 27.1749 14.1073 27.1749 21.505C27.1749 28.9027 33.3192 34.408 40.2917 34.408H46.495ZM9.21642 9.83085C8.72755 9.83085 8.2587 10.025 7.91302 10.3707C7.56734 10.7164 7.37313 11.1853 7.37313 11.6741C7.37313 12.163 7.56734 12.6318 7.91302 12.9775C8.2587 13.3232 8.72755 13.5174 9.21642 13.5174H19.0473C19.5361 13.5174 20.005 13.3232 20.3507 12.9775C20.6963 12.6318 20.8905 12.163 20.8905 11.6741C20.8905 11.1853 20.6963 10.7164 20.3507 10.3707C20.005 10.025 19.5361 9.83085 19.0473 9.83085H9.21642Z" fill="#FF5F00"/>
</svg>
