<svg width="61" height="33" viewBox="0 0 61 33" fill="none" xmlns="http://www.w3.org/2000/svg">
<path d="M3.14742 33C2.79771 32.5217 2.39803 32.1028 1.9484 31.7431C1.49877 31.3835 1.02416 31.0611 0.52457 30.7761C2.47297 28.9109 3.92179 26.7463 4.87101 24.2823C5.82023 21.8183 6.29484 19.272 6.29484 16.6435V11.1913H29.1511V21.737H9.44226C9.04259 23.937 8.36814 26.0413 7.41892 28.05C6.4697 30.0587 5.04586 31.7087 3.14742 33ZM9.81695 19.1543H25.629V13.7739H9.81695V19.1543ZM2.02334 13.5587C1.77355 13.0326 1.47379 12.5543 1.12408 12.1239C0.774366 11.6935 0.399672 11.287 0 10.9043C3.0475 9.66087 5.89517 8.13043 8.543 6.31304C11.1908 4.49565 13.6138 2.3913 15.812 0H19.1093C21.4574 2.29565 24.0433 4.26896 26.867 5.91991C29.6907 7.57087 32.6003 9.08887 35.5958 10.4739C35.1462 10.9043 34.7335 11.3587 34.3578 11.837C33.9821 12.3152 33.6704 12.8174 33.4226 13.3435C30.5749 11.9565 27.7892 10.4615 25.0655 8.85835C22.3417 7.25522 19.8567 5.37948 17.6106 3.23113C15.4623 5.52678 13.0763 7.53548 10.4524 9.25722C7.82858 10.979 5.01889 12.4109 2.02334 13.5587ZM9.29238 33V22.9565H30.2752V33H26.9779V25.7543H12.5897V33H9.29238ZM10.6413 9.82826V7.24565H24.8047V9.82826H10.6413ZM7.86855 17.6478V15.2087H27.8771V17.6478H7.86855ZM10.3415 31.9239V29.1978H28.4767V31.9239H10.3415ZM47.2862 26.9739C48.6851 26.9739 50.047 26.663 51.3719 26.0413C52.6968 25.4196 53.9078 24.5348 55.0049 23.387V15.7826C53.8559 15.9261 52.7937 16.0935 51.8185 16.2848C50.8433 16.4761 49.9321 16.6913 49.0848 16.9304C46.8366 17.6 45.15 18.437 44.0249 19.4413C42.8998 20.4457 42.3383 21.6174 42.3403 22.9565C42.3403 24.2 42.7899 25.1804 43.6892 25.8978C44.5885 26.6152 45.7875 26.9739 47.2862 26.9739ZM45.5627 31.8522C42.715 31.8522 40.4668 31.0745 38.8182 29.5192C37.1695 27.9639 36.3452 25.8481 36.3452 23.1717C36.3452 20.6848 37.1695 18.6522 38.8182 17.0739C40.4668 15.4957 43.1147 14.2283 46.7617 13.2717C47.9107 12.9848 49.1727 12.7217 50.5476 12.4826C51.9224 12.2435 53.4082 12.0283 55.0049 11.837C54.905 9.58913 54.3554 7.95061 53.3563 6.92139C52.3571 5.89217 50.8083 5.37852 48.7101 5.38043C47.4111 5.38043 46.1252 5.60809 44.8522 6.06339C43.5793 6.5187 41.9426 7.3193 39.9423 8.46522L37.5442 4.44783C39.1929 3.25217 41.1293 2.28417 43.3535 1.54383C45.5776 0.803479 47.8378 0.432348 50.1339 0.430435C53.681 0.430435 56.3788 1.48261 58.2273 3.58696C60.0758 5.6913 61 8.75217 61 12.7696V31.2065H55.9791L55.5295 27.9783C54.1306 29.1739 52.5939 30.119 50.9193 30.8134C49.2446 31.5078 47.4591 31.8541 45.5627 31.8522Z" fill="#FF6B17"/>
</svg>
