<svg width="58" height="58" viewBox="0 0 58 58" fill="none" xmlns="http://www.w3.org/2000/svg">
<path d="M20.6125 11.4524C14.5775 18.227 10.4358 27.9599 10.0512 28.877L3.36541 26.0074C1.4425 25.1791 0.969162 22.6645 2.44833 21.1854L11.3529 12.2808C12.7433 10.8904 14.755 10.2691 16.7075 10.6537L20.6125 11.4524ZM25.0204 41.5091C25.9079 42.3966 27.2096 42.6333 28.3337 42.1008C31.7654 40.5033 39.1317 36.7462 43.8946 31.9833C57.4733 18.4045 57.5917 7.34035 56.7929 2.60702C56.6882 2.0256 56.4082 1.49011 55.9905 1.07237C55.5727 0.654632 55.0372 0.374633 54.4558 0.269934C49.7225 -0.528816 38.6583 -0.410483 25.0796 13.1683C20.3167 17.9312 16.5892 25.2974 14.9621 28.7291C14.4296 29.8533 14.6958 31.1845 15.5537 32.0424L25.0204 41.5091ZM45.64 36.4799C38.8654 42.5149 29.1325 46.6566 28.2154 47.0412L31.085 53.727C31.9133 55.6499 34.4279 56.1233 35.9071 54.6441L44.8117 45.7395C46.2021 44.3491 46.8233 42.3374 46.4387 40.3849L45.64 36.4799ZM19.8729 44.1716C20.1598 45.6044 20.0885 47.0858 19.6653 48.4843C19.2421 49.8829 18.4801 51.1553 17.4471 52.1887C15.1692 54.4666 8.09875 56.1529 3.51333 57.0404C1.47208 57.4249 -0.332504 55.6204 0.0520791 53.5791C0.939579 48.9937 2.59625 41.9233 4.90375 39.6454C5.9371 38.6123 7.20954 37.8503 8.60811 37.4272C10.0067 37.004 11.4881 36.9327 12.9208 37.2195C16.3821 37.8704 19.2221 40.7104 19.8729 44.1716ZM31.8837 19.292C31.8837 16.0379 34.5462 13.3754 37.8004 13.3754C41.0546 13.3754 43.7171 16.0379 43.7171 19.292C43.7171 22.5462 41.0546 25.2087 37.8004 25.2087C34.5462 25.2087 31.8837 22.5462 31.8837 19.292Z" fill="#FF6B17"/>
</svg>
