<svg width="54" height="54" viewBox="0 0 54 54" fill="none" xmlns="http://www.w3.org/2000/svg">
<path d="M5.91667 53.25C4.28959 53.25 2.89621 52.6702 1.73655 51.5105C0.57688 50.3508 -0.0019672 48.9585 5.02264e-06 47.3333V5.91667C5.02264e-06 4.28959 0.579838 2.89621 1.73951 1.73655C2.89917 0.57688 4.29156 -0.0019672 5.91667 5.02264e-06H47.3333C48.9604 5.02264e-06 50.3538 0.579838 51.5135 1.73951C52.6731 2.89917 53.252 4.29156 53.25 5.91667V47.3333C53.25 48.9604 52.6702 50.3538 51.5105 51.5135C50.3508 52.6731 48.9585 53.252 47.3333 53.25H5.91667ZM5.91667 47.3333H47.3333V11.8333H5.91667V47.3333ZM26.625 41.4167C22.5819 41.4167 18.9698 40.3191 15.7886 38.124C12.6074 35.929 10.3029 33.0821 8.875 29.5833C10.3049 26.0826 12.6094 23.2348 15.7886 21.0397C18.9679 18.8446 22.58 17.748 26.625 17.75C30.6681 17.75 34.2802 18.8475 37.4614 21.0426C40.6426 23.2377 42.9471 26.0846 44.375 29.5833C42.9451 33.084 40.6406 35.9319 37.4614 38.127C34.2822 40.3221 30.67 41.4186 26.625 41.4167ZM26.625 34.0208C25.3924 34.0208 24.3441 33.5889 23.4803 32.7251C22.6165 31.8613 22.1855 30.814 22.1875 29.5833C22.1875 28.3507 22.6194 27.3025 23.4833 26.4386C24.3471 25.5748 25.3943 25.1439 26.625 25.1458C27.8576 25.1458 28.9059 25.5778 29.7697 26.4416C30.6335 27.3054 31.0645 28.3527 31.0625 29.5833C31.0625 30.816 30.6306 31.8642 29.7668 32.728C28.9029 33.5919 27.8557 34.0228 26.625 34.0208ZM26.625 36.9792C28.6958 36.9792 30.4462 36.2642 31.876 34.8344C33.3059 33.4045 34.0208 31.6542 34.0208 29.5833C34.0208 27.5125 33.3059 25.7622 31.876 24.3323C30.4462 22.9024 28.6958 22.1875 26.625 22.1875C24.5542 22.1875 22.8038 22.9024 21.374 24.3323C19.9441 25.7622 19.2292 27.5125 19.2292 29.5833C19.2292 31.6542 19.9441 33.4045 21.374 34.8344C22.8038 36.2642 24.5542 36.9792 26.625 36.9792Z" fill="#FF6B17"/>
</svg>
