<svg width="54" height="58" viewBox="0 0 54 58" fill="none" xmlns="http://www.w3.org/2000/svg">
<path d="M18.0458 21.4479L3.10625 13.0906L26.625 0L50.1437 13.0906L35.2042 21.4479C34.0701 20.2646 32.7635 19.3524 31.2844 18.7115C29.8052 18.0705 28.2521 17.75 26.625 17.75C24.9979 17.75 23.4448 18.0705 21.9656 18.7115C20.4865 19.3524 19.1799 20.2646 18.0458 21.4479ZM23.6667 57.5396L0 44.375V18.1198L15.1615 26.625C15.0135 27.1181 14.9149 27.5993 14.8656 28.0687C14.8163 28.5381 14.7917 29.0429 14.7917 29.5833C14.7917 32.2951 15.6052 34.7111 17.2323 36.8312C18.8594 38.9514 21.0042 40.3566 23.6667 41.0469V57.5396ZM26.625 35.5C24.9979 35.5 23.6045 34.9212 22.4449 33.7635C21.2852 32.6058 20.7064 31.2124 20.7083 29.5833C20.7083 27.9562 21.2882 26.5629 22.4478 25.4032C23.6075 24.2435 24.9999 23.6647 26.625 23.6667C28.2521 23.6667 29.6455 24.2465 30.8051 25.4062C31.9648 26.5658 32.5436 27.9582 32.5417 29.5833C32.5417 31.2104 31.9618 32.6038 30.8022 33.7635C29.6425 34.9231 28.2501 35.502 26.625 35.5ZM29.5833 57.5396V41.0469C32.2458 40.3566 34.3906 38.9514 36.0177 36.8312C37.6448 34.7111 38.4583 32.2951 38.4583 29.5833C38.4583 29.041 38.4337 28.5351 38.3844 28.0657C38.3351 27.5963 38.2365 27.1161 38.0885 26.625L53.25 18.1198V44.375L29.5833 57.5396Z" fill="#FF6B17"/>
</svg>
