<svg width="52" height="57" viewBox="0 0 52 57" fill="none" xmlns="http://www.w3.org/2000/svg">
<path d="M10.1651 0L0.2044 11.9982H6.18081V21.9966H14.1494V11.9982H20.1258L10.1651 0ZM37.059 0C32.0786 0 32.0786 0 32.0786 4.99236V24.9962C32.0786 29.9954 32.0786 29.9954 37.059 29.9954H47.0197C52 29.9954 52 29.9954 52 24.9962V4.99924C52 0 52 0 47.0197 0H37.059ZM16.1535 25.6091C15.4961 25.6241 14.882 25.9112 14.0443 26.8084L13.2273 27.6794L12.379 26.8395C11.4592 25.9297 10.7335 25.6784 9.99775 25.7109C9.26216 25.7434 8.39719 26.1315 7.42976 26.9175L6.65544 27.5463L5.92009 26.8745C4.81197 25.8682 3.86757 25.5701 2.96301 25.617C2.30461 25.6512 1.62143 25.9002 0.939748 26.3356L6.04074 35.5451C7.9649 36.7264 11.8968 37.1709 14.6007 35.8031L19.5305 26.6363C18.5954 26.2536 17.755 25.8614 17.0286 25.7109C16.7657 25.6563 16.5215 25.6162 16.2853 25.6091C16.2413 25.608 16.1974 25.608 16.1535 25.6091ZM38.055 33.9948V43.9933H32.0786L42.0393 55.9914L52 43.9933H46.0236V33.9948H38.055ZM4.95129 37.631V37.6312C2.70578 39.2237 0.902769 41.9702 0.2044 45.993C-0.472305 49.8919 0.593738 52.525 2.48054 54.3196C4.36747 56.1143 7.19967 57.0364 10.0756 56.9989C12.9517 56.9614 15.8199 55.9603 17.7484 54.1323C19.6771 52.3042 20.7679 49.7049 20.1493 45.9851C19.5097 42.1411 17.8584 39.4677 15.7679 37.8497C12.2215 39.7314 7.7876 39.3315 4.95129 37.631Z" fill="#FF6B17"/>
</svg>
