<svg width="50" height="50" viewBox="0 0 50 50" fill="none" xmlns="http://www.w3.org/2000/svg">
<path d="M43.0771 0C42.3572 0 41.6718 0.326133 41.0959 0.901661L39.7175 2.21962L47.8153 10.3116L49.1361 8.93412C50.288 7.78306 50.288 6.06799 49.1361 4.91693L45.116 0.899743C44.54 0.324214 43.7971 0 43.0771 0ZM38.3966 3.35917L36.2964 5.09918L44.9355 13.7321L46.8553 11.8137L38.3966 3.35917ZM35.156 6.47661L17.82 23.6235C17.7323 23.6959 17.6513 23.7762 17.5781 23.8633L17.4591 23.9228C17.2497 24.1626 17.105 24.4518 17.0387 24.7631L14.6984 32.9759C14.5981 33.3009 14.5884 33.6472 14.6704 33.9773C14.7523 34.3075 14.9228 34.6091 15.1636 34.8496C15.4043 35.0902 15.7061 35.2605 16.0365 35.3424C16.3669 35.4243 16.7134 35.4147 17.0387 35.3144L25.2574 32.9759C25.5303 32.9112 25.7851 32.7861 26.0031 32.6097C26.2211 32.4334 26.3967 32.2104 26.5168 31.9572L43.5571 15.1095L40.3164 11.6314V11.8118L38.0357 9.53267H38.2162L35.156 6.47661ZM1.56111 7.79457C1.11634 7.87911 0.715784 8.11799 0.430185 8.46902C0.144586 8.82006 -0.00767502 9.26066 0.000297958 9.713V48.0816C0.000297958 48.5904 0.202564 49.0783 0.562599 49.4381C0.922635 49.7979 1.41095 50 1.92011 50H40.3164C40.8256 50 41.3139 49.7979 41.674 49.4381C42.034 49.0783 42.2363 48.5904 42.2363 48.0816V26.9789C42.2363 26.4701 42.034 25.9821 41.674 25.6223C41.3139 25.2625 40.8256 25.0604 40.3164 25.0604C39.8073 25.0604 39.319 25.2625 38.9589 25.6223C38.5989 25.9821 38.3966 26.4701 38.3966 26.9789V46.1631H3.83993V11.6314H23.0381C23.5473 11.6314 24.0356 11.4293 24.3956 11.0695C24.7556 10.7098 24.9579 10.2218 24.9579 9.713C24.9579 9.2042 24.7556 8.71624 24.3956 8.35647C24.0356 7.9967 23.5473 7.79457 23.0381 7.79457H1.92011C1.85999 7.79175 1.79977 7.79175 1.73965 7.79457C1.67953 7.79175 1.61931 7.79175 1.55919 7.79457H1.56111ZM20.4003 26.6201L23.04 26.7985L23.2205 29.6762L20.5807 30.455L19.5613 29.4383L20.4003 26.6201Z" fill="#FF6B17"/>
</svg>
