<svg width="49" height="57" viewBox="0 0 49 57" fill="none" xmlns="http://www.w3.org/2000/svg">
<path d="M16.7632 28.5C18.1311 28.5 19.443 27.9541 20.4103 26.9823C21.3776 26.0105 21.9211 24.6925 21.9211 23.3182C21.9211 21.9439 21.3776 20.6259 20.4103 19.6541C19.443 18.6823 18.1311 18.1364 16.7632 18.1364C15.3952 18.1364 14.0833 18.6823 13.116 19.6541C12.1487 20.6259 11.6053 21.9439 11.6053 23.3182C11.6053 24.6925 12.1487 26.0105 13.116 26.9823C14.0833 27.9541 15.3952 28.5 16.7632 28.5ZM24.5 0L49 14.25V42.75L24.5 57L0 42.75V14.25L24.5 0ZM5.15789 17.2373V39.7627L11.2752 43.32L32.095 27.9818L43.8421 35.0654V17.2399L24.5 5.985L5.15789 17.2373Z" fill="#FF6B17"/>
</svg>
