<svg width="47" height="52" viewBox="0 0 47 52" fill="none" xmlns="http://www.w3.org/2000/svg">
<path d="M41.7837 52H5.26985V46.8H41.7837V52ZM36.5675 20.8C32.8639 20.8 29.4212 22.802 27.5694 26H26.1349V13H33.9593V7.8H26.1349V0H20.9187V7.8H13.0943V13H20.9187V26H19.4842C16.6152 21.034 10.2253 19.318 5.26985 22.204C2.86746 23.5738 1.10713 25.8365 0.373958 28.4969C-0.359211 31.1573 -0.00552213 33.9989 1.35765 36.4C3.28767 39.624 6.75649 41.6 10.4861 41.6H36.5675C39.3343 41.6 41.9879 40.5043 43.9444 38.5539C45.9009 36.6035 47 33.9583 47 31.2C47 28.4417 45.9009 25.7965 43.9444 23.8461C41.9879 21.8957 39.3343 20.8 36.5675 20.8Z" fill="#FF6B17"/>
</svg>
