<svg width="45" height="45" viewBox="0 0 45 45" fill="none" xmlns="http://www.w3.org/2000/svg">
<circle cx="22.5" cy="22.5" r="22.5" fill="#F78E1D"/>
<path d="M24.3 27.85C24.1 27.65 24.004 27.4083 24.012 27.125C24.02 26.8417 24.1243 26.6 24.325 26.4L27.15 23.575H16C15.7167 23.575 15.479 23.479 15.287 23.287C15.095 23.095 14.9993 22.8577 15 22.575C15 22.2917 15.096 22.054 15.288 21.862C15.48 21.67 15.7173 21.5743 16 21.575H27.15L24.3 18.725C24.1 18.525 24 18.2873 24 18.012C24 17.7367 24.1 17.4993 24.3 17.3C24.5 17.1 24.7377 17 25.013 17C25.2883 17 25.5257 17.1 25.725 17.3L30.3 21.875C30.4 21.975 30.471 22.0833 30.513 22.2C30.555 22.3167 30.5757 22.4417 30.575 22.575C30.575 22.7083 30.554 22.8333 30.512 22.95C30.47 23.0667 30.3993 23.175 30.3 23.275L25.7 27.875C25.5167 28.0583 25.2877 28.15 25.013 28.15C24.7383 28.15 24.5007 28.05 24.3 27.85Z" fill="#F8F8F8"/>
</svg>
