<svg width="24" height="19" viewBox="0 0 24 19" fill="none" xmlns="http://www.w3.org/2000/svg">
<path d="M22.5 0H1.5C1.10218 0 0.720644 0.166815 0.43934 0.463748C0.158035 0.76068 0 1.16341 0 1.58333V17.4167C0 17.8366 0.158035 18.2393 0.43934 18.5363C0.720644 18.8332 1.10218 19 1.5 19H22.5C22.8978 19 23.2794 18.8332 23.5607 18.5363C23.842 18.2393 24 17.8366 24 17.4167V1.58333C24 1.16341 23.842 0.76068 23.5607 0.463748C23.2794 0.166815 22.8978 0 22.5 0ZM12.75 12.6667H5.25C5.05109 12.6667 4.86032 12.5833 4.71967 12.4348C4.57902 12.2863 4.5 12.085 4.5 11.875C4.5 11.665 4.57902 11.4637 4.71967 11.3152C4.86032 11.1667 5.05109 11.0833 5.25 11.0833H12.75C12.9489 11.0833 13.1397 11.1667 13.2803 11.3152C13.421 11.4637 13.5 11.665 13.5 11.875C13.5 12.085 13.421 12.2863 13.2803 12.4348C13.1397 12.5833 12.9489 12.6667 12.75 12.6667ZM18.75 9.5H5.25C5.05109 9.5 4.86032 9.41659 4.71967 9.26813C4.57902 9.11966 4.5 8.9183 4.5 8.70833C4.5 8.49837 4.57902 8.29701 4.71967 8.14854C4.86032 8.00007 5.05109 7.91667 5.25 7.91667H18.75C18.9489 7.91667 19.1397 8.00007 19.2803 8.14854C19.421 8.29701 19.5 8.49837 19.5 8.70833C19.5 8.9183 19.421 9.11966 19.2803 9.26813C19.1397 9.41659 18.9489 9.5 18.75 9.5ZM18.75 6.33333H5.25C5.05109 6.33333 4.86032 6.24993 4.71967 6.10146C4.57902 5.95299 4.5 5.75163 4.5 5.54167C4.5 5.3317 4.57902 5.13034 4.71967 4.98187C4.86032 4.83341 5.05109 4.75 5.25 4.75H18.75C18.9489 4.75 19.1397 4.83341 19.2803 4.98187C19.421 5.13034 19.5 5.3317 19.5 5.54167C19.5 5.75163 19.421 5.95299 19.2803 6.10146C19.1397 6.24993 18.9489 6.33333 18.75 6.33333Z" fill="#F8F8F8"/>
</svg>
