<svg width="1536" height="457" viewBox="0 0 1536 457" fill="none" xmlns="http://www.w3.org/2000/svg">
<g filter="url(#filter0_d_122_16)">
<path d="M272 208C128 168 2 454 2 454H1536V248C1472.67 220 1378 132 1328 162C1278 192 1308 234 1266 234C1224 234 1213.8 173.292 1172 180C1110.84 189.814 1170.43 283.902 1134 334C1037.5 466.689 965.175 43.3338 804 74C664.156 100.608 717.674 332.518 578 360C447.079 385.76 416 248 272 208Z" fill="url(#paint0_linear_122_16)"/>
</g>
<defs>
<filter id="filter0_d_122_16" x="-84" y="0.405273" width="1686" height="533.595" filterUnits="userSpaceOnUse" color-interpolation-filters="sRGB">
<feFlood flood-opacity="0" result="BackgroundImageFix"/>
<feColorMatrix in="SourceAlpha" type="matrix" values="0 0 0 0 0 0 0 0 0 0 0 0 0 0 0 0 0 0 127 0" result="hardAlpha"/>
<feOffset dx="-10" dy="4"/>
<feGaussianBlur stdDeviation="38"/>
<feComposite in2="hardAlpha" operator="out"/>
<feColorMatrix type="matrix" values="0 0 0 0 1 0 0 0 0 0.339426 0 0 0 0 0.191667 0 0 0 0.78 0"/>
<feBlend mode="normal" in2="BackgroundImageFix" result="effect1_dropShadow_122_16"/>
<feBlend mode="normal" in="SourceGraphic" in2="effect1_dropShadow_122_16" result="shape"/>
</filter>
<linearGradient id="paint0_linear_122_16" x1="769" y1="72.4053" x2="769" y2="454" gradientUnits="userSpaceOnUse">
<stop stop-color="#FE8347"/>
<stop offset="1" stop-color="#FF7050"/>
</linearGradient>
</defs>
</svg>
