<svg width="1536" height="462" viewBox="0 0 1536 462" fill="none" xmlns="http://www.w3.org/2000/svg">
<g filter="url(#filter0_d_124_5)">
<path d="M272 246C128 286 2 -3.05176e-05 2 -3.05176e-05H1536V206C1472.67 234 1378 322 1328 292C1278 262 1308 220 1266 220C1224 220 1213.8 280.708 1172 274C1110.84 264.186 1170.43 170.098 1134 120C1037.5 -12.6888 965.175 410.666 804 380C664.156 353.392 717.674 121.482 578 94C447.079 68.2401 416 206 272 246Z" fill="url(#paint0_linear_124_5)"/>
</g>
<defs>
<filter id="filter0_d_124_5" x="-84" y="-72" width="1686" height="533.595" filterUnits="userSpaceOnUse" color-interpolation-filters="sRGB">
<feFlood flood-opacity="0" result="BackgroundImageFix"/>
<feColorMatrix in="SourceAlpha" type="matrix" values="0 0 0 0 0 0 0 0 0 0 0 0 0 0 0 0 0 0 127 0" result="hardAlpha"/>
<feOffset dx="-10" dy="4"/>
<feGaussianBlur stdDeviation="38"/>
<feComposite in2="hardAlpha" operator="out"/>
<feColorMatrix type="matrix" values="0 0 0 0 1 0 0 0 0 0.339426 0 0 0 0 0.191667 0 0 0 0.78 0"/>
<feBlend mode="normal" in2="BackgroundImageFix" result="effect1_dropShadow_124_5"/>
<feBlend mode="normal" in="SourceGraphic" in2="effect1_dropShadow_124_5" result="shape"/>
</filter>
<linearGradient id="paint0_linear_124_5" x1="769" y1="381.595" x2="769" y2="-3.05176e-05" gradientUnits="userSpaceOnUse">
<stop stop-color="#FE8347"/>
<stop offset="1" stop-color="#FF7050"/>
</linearGradient>
</defs>
</svg>
